<svg height="496pt" viewBox="0 0 496 496.944" width="496pt" xmlns="http://www.w3.org/2000/svg"><path d="m470.238281 272.945312-16-48h-53.765625v-112h16v-48h-16v-4.226562c0-25.117188-13.960937-47.703125-36.425781-58.933594l-3.574219-1.785156-3.578125 1.792969c-22.460937 11.222656-36.421875 33.808593-36.421875 58.925781v4.226562h-16v48h16v80h-144v-80h16v-48h-16v-4.226562c0-25.117188-13.960937-47.703125-36.425781-58.933594l-3.574219-1.785156-3.578125 1.792969c-22.460937 11.222656-36.421875 33.808593-36.421875 58.925781v4.226562h-16v48h16v112h-53.769531l-16 48h-26.230469v224h496v-224zm10.234375 32h-80v-16h80zm-192 176h-80v-90.335937c0-28.699219 15.222656-54.625 40-68.609375 24.773438 13.984375 40 39.910156 40 68.609375zm-36.425781-175.160156-3.574219-1.785156-3.578125 1.792969c-32.335937 16.160156-52.421875 48.664062-52.421875 84.816406v90.335937h-16v-208h144v208h-16v-90.335937c0-36.152344-20.089844-68.65625-52.425781-84.824219zm-139.574219-144.839844h48v16h-48zm0 32h48v128h-48zm48 240h-48v-16h48zm0-32h-48v-32h48zm0-48h-48v-16h48zm-64-16h-80v-16h80zm16 112h48v32h-48zm160-192v-48h16v48zm-16 0h-16v-48h16zm-32 0h-16v-48h16zm112-96h48v16h-48zm48 32v128h-48v-128zm0 240h-48v-16h48zm0-32h-48v-32h48zm-48-48v-16h48v16zm0 96h48v32h-48zm64-128h80v16h-80zm42.230469-80 10.664063 32h-52.894532v-32zm-106.230469-180.226562c0-17.648438 9.09375-33.648438 24-42.65625 14.902344 9.007812 24 25 24 42.65625v4.226562h-48zm-16 20.226562h80v16h-80zm64 32v32h-48v-32zm-64 144h-16v-48h16zm-128-48v48h-16v-48zm-80-148.226562c0-17.648438 9.09375-33.648438 24-42.65625 14.902344 9.007812 24 25 24 42.65625v4.226562h-48zm-16 20.226562h80v16h-80zm64 32v32h-48v-32zm-106.234375 128h42.234375v32h-52.898437zm42.234375 48v16h-80v-16zm-80 64h80v128h-16v-96h-48v96h-16zm48 128h-16v-80h16zm384 0h-16v-80h16zm16 0v-96h-48v96h-16v-128h80v128zm0 0"/></svg>