<?xml version="1.0" encoding="UTF-8" standalone="no"?><!-- Generator: Gravit.io --><svg xmlns="http://www.w3.org/2000/svg" xmlns:xlink="http://www.w3.org/1999/xlink" style="isolation:isolate" viewBox="0 0 2599 1733" width="2599pt" height="1733pt"><defs><clipPath id="_clipPath_3zEmJW0zkQma4voTxM2FDS6apsd5jLlQ"><rect width="2599" height="1733"/></clipPath></defs><g clip-path="url(#_clipPath_3zEmJW0zkQma4voTxM2FDS6apsd5jLlQ)"><ellipse vector-effect="non-scaling-stroke" cx="1625.5" cy="978" rx="446.5" ry="348" fill="rgb(182,208,225)"/><ellipse vector-effect="non-scaling-stroke" cx="1299.5" cy="728" rx="373.25000000000006" ry="283" fill="rgb(182,208,225)"/><g><clipPath id="_clipPath_5fXG7e2kRPEvI1q9qUgkShGFBcFDvkVI"><path d=" M 926 239 L 924 1644 C 1745.552 1639.577 1772.614 1647.421 2128 1644 L 2128 239 C 2069.303 271.511 2081.313 246.854 926 239 Z " fill="rgb(255,255,255)"/></clipPath><g clip-path="url(#_clipPath_5fXG7e2kRPEvI1q9qUgkShGFBcFDvkVI)"><path d=" M 1499.535 361.744 C 1495.676 346.459 1494.323 331.992 1502.097 331.659 C 1507.848 331.414 1523.557 338.512 1528.56 340.843 C 1534.972 343.833 1542.481 343.803 1548.723 346.939 C 1566.456 355.835 1549.877 373.502 1539.407 381.073 C 1532.929 385.757 1517.57 405.744 1511.971 396.662 C 1509.701 392.975 1503.384 376.953 1499.535 361.744 Z " fill="rgb(210,106,65)"/><path d=" M 1306.044 1518.505 C 1306.044 1547.025 1422.532 1570.139 1566.219 1570.139 C 1709.907 1570.139 1826.385 1547.025 1826.385 1518.505 C 1826.385 1490.004 1709.907 1466.891 1566.219 1466.891 C 1422.532 1466.891 1306.044 1490.004 1306.044 1518.505 Z " fill="rgb(182,208,225)"/><path d=" M 1450.781 591.808 L 1438.969 594.817 C 1438.969 594.817 1410.587 738.852 1423.808 772.442 C 1437.021 806.036 1457.089 774.702 1463.142 771.439 C 1469.185 768.183 1517.617 606.235 1517.617 606.235 L 1450.781 591.808 Z " fill="rgb(229,150,123)"/><path d=" M 1414.483 754.806 L 1434.514 573.236 C 1445.977 529.137 1489.812 545.701 1489.812 545.701 C 1525.429 557.999 1520.804 599.462 1520.804 599.462 L 1477.48 771.624 C 1477.48 771.624 1469.081 797.819 1435.517 795.381 C 1435.517 795.381 1410.975 790.166 1414.483 754.806 Z " fill="rgb(41,44,49)"/><path d=" M 1437.238 743.423 C 1437.238 743.423 1302.374 836.2 1273.482 851.29 C 1273.482 851.29 1263.135 870.301 1277.047 867.279 C 1304.833 861.244 1457.591 793.146 1465.866 782.023 C 1474.132 770.914 1437.238 743.423 1437.238 743.423 Z " fill="rgb(229,150,123)"/><path d=" M 1227.14 880.436 L 1238.432 879.296 C 1238.432 879.296 1218.171 886.217 1211.037 879.859 C 1211.037 879.859 1209.258 878.9 1211.735 876.252 C 1211.735 876.252 1229.937 874.28 1237.808 871.333 C 1237.808 871.333 1220.051 877.111 1207.104 876.735 C 1207.104 876.735 1201.827 873.72 1207.036 870.262 C 1202.832 868.938 1206.14 865.915 1206.14 865.915 C 1206.14 865.915 1209.672 863.543 1218.093 860.166 C 1218.093 860.166 1231.014 854.879 1245.478 846.864 C 1245.478 846.864 1233.004 839.766 1237.023 833.019 L 1256.08 841.573 L 1273.482 851.29 L 1277.047 867.279 L 1260.052 876.195 C 1260.052 876.195 1243.729 884.332 1234.233 885.367 C 1234.233 885.367 1206.86 886.373 1227.14 880.436 Z " fill="rgb(229,150,123)"/><path d=" M 1284.85 838.525 L 1269.888 845.036 L 1280.953 871.65 L 1295.915 865.15 L 1284.85 838.525 Z " fill="rgb(254,254,254)"/><path d=" M 1420.839 726.132 C 1420.839 726.132 1330.936 794.293 1278.995 839.282 C 1278.995 839.282 1284.216 858.273 1290.798 867.669 C 1290.798 867.669 1431.828 813.956 1472.808 784.236 C 1472.808 784.236 1446.932 710.968 1420.839 726.132 Z " fill="rgb(41,44,49)"/><path d=" M 1464.731 1456.146 C 1464.731 1456.146 1458.423 1481.281 1450.668 1488.09 C 1442.903 1494.917 1413.301 1504.937 1413.301 1504.937 L 1396.892 1507.345 C 1396.892 1507.345 1385.506 1515.71 1416.791 1524.492 C 1448.076 1533.292 1502.987 1506.755 1502.987 1506.755 L 1490.616 1455.382 L 1464.731 1456.146 Z " fill="rgb(61,43,45)"/><path d=" M 1631.92 1525.265 C 1637.444 1516.465 1649.02 1468.506 1649.02 1468.506 L 1674.574 1467.722 L 1690.576 1520.517 C 1690.576 1520.517 1693.139 1529.356 1687.918 1532.673 C 1687.918 1532.673 1656.037 1543.988 1628.809 1532.132 C 1628.809 1532.132 1629.093 1529.762 1631.92 1525.265 Z " fill="rgb(61,43,45)"/><path d=" M 1473.413 797.07 L 1440.775 593.049 C 1440.775 593.049 1429.53 562.381 1452.02 547.053 L 1537.762 505.845 L 1598.223 505.845 L 1701.3 568.137 L 1633.746 797.07 L 1473.413 797.07 Z " fill="rgb(246,167,136)"/><path d=" M 1633.746 797.07 C 1633.746 797.07 1652.263 840.301 1656.727 939.677 C 1656.727 939.677 1517.381 984.374 1473.668 939.677 L 1473.413 797.07 L 1633.746 797.07 Z " fill="rgb(36,57,88)"/><path d=" M 1542.396 939.244 C 1542.15 972.596 1567.553 999.824 1599.112 1000.058 C 1630.691 1000.296 1656.481 973.455 1656.718 940.107 C 1656.964 906.759 1631.57 879.534 1599.992 879.296 C 1568.423 879.058 1542.632 905.903 1542.396 939.244 Z " fill="rgb(46,50,57)"/><path d=" M 1656.671 947.457 L 1671.831 1201.409 C 1671.831 1201.409 1645 1267.463 1597.486 1226.854 L 1545.914 965.613 C 1545.914 965.613 1570.948 877.81 1656.671 947.457 Z " fill="rgb(46,50,57)"/><path d=" M 1671.831 1201.409 C 1671.831 1201.409 1686.121 1249.098 1681.875 1332.124 L 1686.121 1487.355 L 1633.509 1488.428 L 1597.741 1227.657 C 1597.741 1227.657 1633.557 1143.141 1671.831 1201.409 Z " fill="rgb(46,50,57)"/><path d=" M 1473.933 939.839 C 1470.623 973.011 1482.218 1001.396 1513.626 1004.675 C 1545.034 1007.95 1573.18 983.712 1576.49 950.534 C 1579.791 917.356 1557.017 887.808 1525.609 884.53 C 1494.201 881.252 1477.243 906.661 1473.933 939.839 Z " fill="rgb(46,50,57)"/><path d=" M 1563.079 983.518 L 1534.225 1217.492 C 1534.225 1217.492 1471.663 1245.858 1460.551 1206.158 C 1460.551 1206.158 1462.007 1027.931 1473.933 939.839 C 1473.933 939.839 1551.191 901.355 1563.079 983.518 Z " fill="rgb(46,50,57)"/><path d=" M 1534.225 1207.928 C 1534.225 1207.928 1543.011 1242.25 1533.525 1304.9 L 1511.82 1482.239 L 1456.399 1479.24 L 1460.551 1196.758 C 1460.551 1196.758 1495.061 1159.737 1534.225 1207.928 Z " fill="rgb(46,50,57)"/><path d=" M 1688.022 778.883 C 1699.806 899.717 1694.973 907.711 1693.753 956.17 C 1693.753 956.17 1700.033 973.223 1710.739 963.652 C 1721.454 954.079 1738.554 793.168 1733.163 780.334 C 1725.152 761.291 1688.022 778.883 1688.022 778.883 Z " fill="rgb(246,167,136)"/><path d=" M 1695.484 951.352 L 1678.867 968.348 L 1664.747 989.505 C 1671.736 994.309 1679.056 982.471 1679.056 982.471 C 1674.489 1001.118 1665.627 1017.579 1665.627 1017.579 C 1663.48 1024.259 1669.646 1023.762 1669.646 1023.762 C 1676.541 1016.526 1685.374 995.177 1685.374 995.177 C 1682.064 1007.892 1673.618 1028.161 1673.618 1028.161 C 1672.824 1033.976 1678.527 1032.325 1678.527 1032.325 C 1690.254 1025.226 1694.141 999.337 1694.141 999.337 C 1692.978 1009.156 1685.412 1029.331 1685.412 1029.331 C 1686.774 1033.328 1688.665 1031.963 1688.665 1031.963 C 1698.804 1027.801 1702.483 1002.864 1702.483 1002.864 L 1700.865 1012.166 C 1697.546 1024.691 1705.15 1021.461 1705.15 1021.461 L 1707.883 1015.185 C 1715.903 995.896 1713.482 978.54 1713.482 978.54 L 1713.425 955.991 L 1695.484 951.352 Z " fill="rgb(246,167,136)"/><path d=" M 1661.863 571.884 C 1701.66 562.619 1715.26 600.23 1715.26 600.23 C 1715.26 600.23 1735.234 725.424 1734.997 779.076 C 1734.827 815.277 1691.625 786.119 1688.788 779.758 C 1682.527 765.712 1637.141 614.913 1637.141 614.913 C 1637.141 614.913 1634.767 579.485 1661.863 571.884 Z " fill="rgb(246,167,136)"/><path d=" M 1682.064 781.86 L 1630.454 610.761 C 1631.618 568.234 1672.313 561.882 1672.313 561.882 C 1710.588 558.135 1718.977 591.808 1718.977 591.808 L 1737.494 763.102 C 1737.494 763.102 1743.765 801.603 1722.012 802.154 C 1722.012 802.154 1685.506 806.21 1682.064 781.86 Z " fill="rgb(43,47,53)"/><path d=" M 1718.939 946.04 L 1715.761 962.339 L 1688.022 956.669 L 1691.209 940.373 L 1718.939 946.04 Z " fill="rgb(254,254,254)"/><path d=" M 1678.924 771.475 C 1678.924 771.475 1685.611 915.216 1688.022 944.608 L 1719.402 951.352 C 1719.402 951.352 1747.765 807.306 1737.494 763.102 C 1737.494 763.102 1696.487 740.227 1678.924 771.475 Z " fill="rgb(43,47,53)"/><path d=" M 1598.535 460.782 L 1598.535 526.872 L 1530.186 526.872 C 1530.186 526.872 1546.992 500.673 1538.584 460.782 L 1598.535 460.782 Z " fill="rgb(246,167,136)"/><path d=" M 1563.855 516.902 C 1557.698 520.958 1544.609 529.585 1537.137 524.536 C 1535.132 523.176 1534.206 521.398 1533.894 519.413 C 1538.291 508.947 1544.335 488.067 1538.584 460.782 L 1598.535 460.782 L 1598.535 466.773 C 1591.055 486.115 1581.455 505.305 1563.855 516.902 Z " fill="rgb(225,139,116)"/><path d=" M 1600.172 461.705 C 1600.172 461.705 1611.795 456.541 1624.969 427.099 C 1624.969 427.099 1653.559 392.289 1633.292 352.766 C 1633.292 352.766 1621.319 319.346 1563.287 328.696 C 1563.287 328.696 1558.076 418.273 1600.172 461.705 Z " fill="rgb(247,163,130)"/><path d=" M 1528.701 479.58 L 1524.833 469.222 C 1524.833 469.222 1514.146 430.665 1514.146 430.658 C 1512.813 425.811 1512.728 419.323 1513.598 414.338 C 1514.534 408.917 1515.13 403.25 1513.749 397.535 C 1507.006 369.802 1520.908 354.065 1520.908 354.065 C 1536.22 327.912 1573.918 327.043 1573.918 327.043 C 1620.59 328.28 1625.555 374.316 1625.555 374.316 C 1633.821 404.82 1610.537 430.94 1610.49 430.99 C 1608.627 433.072 1609.828 443.149 1609.326 446.037 C 1607.142 458.336 1595.859 466.135 1585.825 471.564 C 1574.797 477.521 1561.443 483.898 1548.997 485.362 C 1544.268 485.925 1530.924 485.524 1528.701 479.58 Z " fill="rgb(246,167,136)"/><path d=" M 1644.839 791.525 C 1644.697 798.326 1654.798 869.437 1650.552 870.345 C 1650.523 870.349 1535.18 897.528 1473.668 870.345 L 1473.413 797.07 L 1440.775 593.049 C 1440.775 593.049 1429.53 562.381 1452.02 547.053 L 1537.762 505.845 L 1531.974 523.616 L 1544.372 559.669 L 1598.223 505.845 L 1701.3 568.137 C 1695.55 587.655 1689.819 607.188 1684.059 626.704 C 1673.429 662.689 1663.092 698.778 1652.15 734.658 C 1652.15 734.658 1643.09 773.584 1644.839 791.525 Z " fill="rgb(153,216,227)"/><path d=" M 1551.815 518.674 L 1552.525 551.52 L 1564.356 539.69 L 1551.815 518.674 Z " fill="rgb(74,176,199)"/><path d=" M 1536.74 571.641 C 1536.74 574.227 1538.793 576.329 1541.327 576.329 C 1543.862 576.329 1545.914 574.227 1545.914 571.641 C 1545.914 569.053 1543.862 566.954 1541.327 566.954 C 1538.793 566.954 1536.74 569.053 1536.74 571.641 Z " fill="rgb(207,234,230)"/><path d=" M 1536.74 656.748 C 1536.74 659.334 1538.793 661.435 1541.327 661.435 C 1543.862 661.435 1545.914 659.334 1545.914 656.748 C 1545.914 654.154 1543.862 652.063 1541.327 652.063 C 1538.793 652.063 1536.74 654.154 1536.74 656.748 Z " fill="rgb(207,234,230)"/><path d=" M 1536.74 741.85 C 1536.74 744.444 1538.793 746.538 1541.327 746.538 C 1543.862 746.538 1545.914 744.444 1545.914 741.85 C 1545.914 739.264 1543.862 737.169 1541.327 737.169 C 1538.793 737.169 1536.74 739.264 1536.74 741.85 Z " fill="rgb(207,234,230)"/><path d=" M 1536.74 826.959 C 1536.74 829.545 1538.793 831.644 1541.327 831.644 C 1543.862 831.644 1545.914 829.545 1545.914 826.959 C 1545.914 824.373 1543.862 822.273 1541.327 822.273 C 1538.793 822.273 1536.74 824.373 1536.74 826.959 Z " fill="rgb(207,234,230)"/><line x1="1551.815" y1="555.262" x2="1551.815" y2="878.258" vector-effect="non-scaling-stroke" stroke-width="2.623" stroke="rgb(120,207,226)" stroke-linejoin="miter" stroke-linecap="butt" stroke-miterlimit="10"/><path d=" M 1474.378 877.075 C 1474.378 877.075 1533.298 905.297 1653.862 876.45 C 1655.848 875.972 1655.006 870.713 1655.006 870.713 L 1653.862 858.84 C 1653.342 855.037 1651.261 855.217 1651.261 855.217 C 1651.233 855.221 1535.899 882.402 1474.378 855.217 C 1474.378 855.217 1471.89 854.771 1471.786 858.579 L 1471.786 873.379 C 1471.786 873.379 1471.786 876.331 1474.378 877.075 Z " fill="rgb(82,53,43)"/><path d=" M 1534.225 886.026 C 1534.225 887.909 1535.681 889.435 1537.478 889.435 L 1560.942 889.435 C 1562.739 889.435 1564.195 887.909 1564.195 886.026 L 1564.195 868.747 C 1564.195 866.868 1562.739 865.338 1560.942 865.338 L 1537.478 865.338 C 1535.681 865.338 1534.225 866.868 1534.225 868.747 L 1534.225 886.026 Z " fill="none" vector-effect="non-scaling-stroke" stroke-width="4.291" stroke="rgb(189,191,193)" stroke-linejoin="miter" stroke-linecap="butt" stroke-miterlimit="10"/><line x1="1564.195" y1="876.299" x2="1551.778" y2="876.299" vector-effect="non-scaling-stroke" stroke-width="4.291" stroke="rgb(189,191,193)" stroke-linejoin="miter" stroke-linecap="butt" stroke-miterlimit="10"/><path d=" M 1551.815 517.936 C 1551.815 517.936 1589.636 502.914 1598.535 487.952 L 1609.714 509.732 L 1569.841 548.838 L 1551.815 518.674" fill="rgb(126,208,226)"/><path d=" M 1644.225 336.673 C 1646.334 346.023 1642.324 352.406 1648.811 360.391 C 1656.018 369.256 1653.408 378.498 1649.568 387.839 C 1642.655 404.65 1635.76 421.271 1625.045 435.988 C 1622.066 440.088 1618.765 444.046 1615.143 447.588 C 1614.538 448.183 1611.454 450.185 1611.313 451.007 C 1611.322 450.994 1617.526 415.235 1599.037 420.133 L 1595.85 419.949 C 1595.85 419.949 1602.205 398.98 1589.031 388.629 C 1595.282 380.412 1590.203 364.005 1588.936 361.661 C 1588.936 361.661 1585.872 346.887 1533.525 348.735 C 1533.525 348.735 1490.654 352.428 1485.235 327.043 C 1485.235 327.043 1501.842 334.431 1511.905 327.043 C 1511.905 327.043 1499.232 322.636 1496.981 303.03 C 1496.981 303.03 1535.095 309.493 1560.98 305.799 C 1560.98 305.799 1637.094 303.03 1644.225 336.673 Z " fill="rgb(210,106,65)"/><path d=" M 1603.501 435.484 C 1605.146 436.912 1607.312 437.796 1610.064 437.886 C 1617.507 438.124 1623.995 431.308 1624.562 422.654 C 1625.13 414.028 1619.578 406.822 1612.145 406.584 C 1608.627 406.471 1605.307 407.942 1602.735 410.447 C 1598.999 414.097 1598.564 421.126 1599.188 426.027 C 1599.68 429.937 1601.023 433.338 1603.501 435.484 Z " fill="rgb(246,167,136)"/><path d=" M 1608.778 414.493 C 1609.421 409.971 1618.198 414.739 1616.732 417.226 C 1615.871 418.669 1614.254 419.664 1612.968 420.639 C 1611.208 421.98 1610.329 423.229 1609.988 425.469 C 1609.941 425.732 1609.856 426.517 1610.102 426.719 C 1611.227 427.6 1615.237 423.336 1616.117 422.449 C 1617.838 420.688 1618.207 417.547 1617.526 415.235 C 1616.798 412.772 1615.294 411.558 1612.741 411.598 C 1610.726 411.614 1608.664 411.661 1608.664 414.234 C 1608.674 414.291 1608.74 414.723 1608.778 414.493 L 1608.778 414.493 Z " fill="rgb(232,143,117)"/><path d=" M 1611.435 419.34 C 1610.546 418.338 1609.62 419.085 1608.627 419.751 C 1607.709 420.369 1607.161 421.285 1606.896 422.353 C 1606.272 424.685 1606.442 427.859 1607.671 429.979 C 1608.664 431.697 1610.414 432.799 1612.372 432.838 C 1615.077 432.88 1615.994 430.478 1616.211 428.14 C 1616.268 427.52 1616.382 426.034 1615.795 425.624 C 1615.171 425.183 1614.66 426.18 1614.216 426.596 C 1613.582 427.159 1612.684 427.341 1611.88 427.373 C 1610.329 427.441 1608.854 426.565 1607.936 425.35 C 1607.785 425.129 1607.643 424.87 1607.558 424.618 C 1607.492 426.15 1607.558 426.497 1607.757 425.656 C 1607.898 425.271 1608.078 424.923 1608.314 424.602 C 1608.986 423.571 1610.083 422.892 1610.821 421.923 C 1611.18 421.469 1611.88 419.852 1611.435 419.34 L 1611.435 419.34 Z " fill="rgb(232,143,117)"/><path d=" M 1615.351 516.196 L 1569.51 680.884 L 1576.31 980.119 C 1576.31 980.119 1647.554 975.662 1678.678 946.851 L 1656.727 772.068 L 1701.3 568.137 L 1615.351 516.196 Z " fill="rgb(43,47,53)"/><path d=" M 1615.351 516.196 L 1569.51 680.884 L 1569.7 688.708 L 1627.447 628.266 C 1627.447 628.266 1633.509 617.78 1625.3 611.573 L 1611.662 598.228 L 1621.385 591.09 C 1621.385 591.09 1635.032 584.324 1633.367 571.641 L 1629.461 523.949 L 1615.351 516.196 Z " fill="rgb(53,64,70)"/><path d=" M 1513.815 517.35 L 1461.601 542.445 C 1461.601 542.445 1431.885 550.468 1437.966 581.952 L 1455.132 756.356 L 1446.535 941.152 C 1446.535 941.152 1439.177 975.49 1499.714 969.674 L 1521.126 676.445 L 1513.815 517.35 Z " fill="rgb(43,47,53)"/><path d=" M 1519.868 519.601 C 1519.868 519.601 1523.348 505.845 1540.4 494.224 L 1538.168 541.645 C 1538.168 541.645 1528.711 517.386 1519.868 519.601 Z " fill="rgb(126,208,226)"/><path d=" M 1518.327 541.645 L 1519.868 519.601 C 1525.079 518.299 1529.732 525.75 1533.525 531.86 L 1518.327 541.645 Z " fill="rgb(74,176,199)"/><path d=" M 1555.523 530.548 L 1556.932 527.883 L 1566.437 542.803 L 1558.265 545.784 L 1555.523 530.548 Z " fill="rgb(0,170,194)"/><path d=" M 1533.525 531.86 L 1530.858 527.684 C 1530.858 527.684 1520.691 536.413 1531.368 545.784 C 1531.368 545.784 1531.368 538.063 1533.525 531.86 Z " fill="rgb(0,170,194)"/><path d=" M 1555.523 530.548 C 1555.523 530.548 1547.465 537.869 1533.525 531.86 C 1530.47 535.831 1530.489 540.882 1531.368 545.784 L 1538.594 561.022 L 1548.676 561.022 L 1558.265 545.784 C 1558.265 545.784 1559.249 542.425 1555.523 530.548 Z " fill="rgb(0,182,201)"/><path d=" M 1548.676 561.022 L 1556.837 779.014 L 1539.814 812.873 L 1525.921 779.187 L 1538.594 561.022 L 1548.676 561.022 Z " fill="rgb(0,170,194)"/><path d=" M 1513.815 517.35 L 1500.357 523.826 L 1490.635 569.742 C 1490.635 569.742 1485.764 581.631 1492.82 584.736 L 1505.502 592.307 L 1487.618 603.876 C 1487.618 603.876 1478.208 609.907 1483.996 618.787 L 1519.868 690.397 L 1521.003 678.155 L 1513.815 517.35 Z " fill="rgb(53,64,70)"/></g></g><g style="isolation:isolate"/></g></svg>